<?xml version="1.0" encoding="UTF-8"?>
<svg width="20px" height="20px" viewBox="0 0 20 20" version="1.1" xmlns="http://www.w3.org/2000/svg" xmlns:xlink="http://www.w3.org/1999/xlink">
    <!-- Generator: Sketch 49.2 (51160) - http://www.bohemiancoding.com/sketch -->
    <title>globe</title>
    <desc>Created with Sketch.</desc>
    <defs></defs>
    <g id="Symbols" stroke="none" stroke-width="1" fill="none" fill-rule="evenodd">
        <g id="Footer" transform="translate(-1509.000000, -49.000000)" fill="#979797" fill-rule="nonzero">
            <path d="M1526.47862,65.6282759 C1528.04552,63.8624138 1529,61.5410345 1529,59 C1529,56.3562069 1527.9669,53.9506897 1526.28552,52.1606897 C1526.28552,52.1606897 1526.28552,52.1603448 1526.28552,52.1603448 C1526.28414,52.1582759 1526.28207,52.1575862 1526.28103,52.1558621 C1524.52966,50.2941379 1522.07586,49.1024138 1519.34655,49.0089655 L1519.34621,49.0086207 L1519.15138,49.0034483 C1519.10103,49.0017241 1519.05069,49 1519,49 C1518.94931,49 1518.89897,49.0017241 1518.84862,49.0034483 L1518.65448,49.0086207 L1518.65414,49.0089655 C1515.92483,49.1024138 1513.47103,50.2941379 1511.71966,52.1558621 C1511.71828,52.1575862 1511.71621,52.1582759 1511.71517,52.1603448 C1511.71517,52.1603448 1511.71517,52.1606897 1511.71483,52.1610345 C1510.0331,53.9506897 1509,56.3562069 1509,59 C1509,61.5410345 1509.95448,63.8624138 1511.52138,65.6282759 C1511.52345,65.6313793 1511.52345,65.6348276 1511.52586,65.637931 C1511.53207,65.6465517 1511.54103,65.6506897 1511.54759,65.6586207 C1513.30828,67.6268966 1515.83448,68.8948276 1518.65379,68.9913793 L1518.65414,68.9917241 L1518.84828,68.9968966 C1518.89897,68.9982759 1518.94931,69 1519,69 C1519.05069,69 1519.10103,68.9982759 1519.15138,68.9965517 L1519.34552,68.9913793 L1519.34586,68.9910345 C1522.16828,68.8941379 1524.69724,67.6237931 1526.45793,65.6513793 C1526.46241,65.6455172 1526.46966,65.6437931 1526.47379,65.6375862 C1526.47655,65.6348276 1526.47655,65.6313793 1526.47862,65.6282759 Z M1509.69828,59.3448276 L1513.83724,59.3448276 C1513.87621,60.8065517 1514.16172,62.2268966 1514.67,63.5575862 C1513.68931,63.9124138 1512.75172,64.3882759 1511.8731,64.982069 C1510.58103,63.4451724 1509.7769,61.4862069 1509.69828,59.3448276 Z M1512.06138,52.8010345 C1512.91931,53.3589655 1513.83276,53.8058621 1514.78552,54.1396552 C1514.20207,55.5558621 1513.87931,57.0827586 1513.83724,58.6551724 L1509.69828,58.6551724 C1509.78069,56.4113793 1510.65931,54.3682759 1512.06138,52.8010345 Z M1528.30172,58.6551724 L1524.16276,58.6551724 C1524.12069,57.0827586 1523.79793,55.5558621 1523.21448,54.1396552 C1524.16724,53.8058621 1525.08069,53.3589655 1525.93862,52.8010345 C1527.34069,54.3682759 1528.21931,56.4113793 1528.30172,58.6551724 Z M1518.65517,54.1596552 C1517.65828,54.1313793 1516.67966,53.9827586 1515.73414,53.7172414 C1516.4331,52.2834483 1517.42,50.9893103 1518.65517,49.9117241 L1518.65517,54.1596552 Z M1518.65517,54.8493103 L1518.65517,58.6551724 L1514.5269,58.6551724 C1514.56931,57.1558621 1514.88379,55.7017241 1515.44621,54.3534483 C1516.48276,54.6537931 1517.55897,54.82 1518.65517,54.8493103 Z M1519.34483,54.8493103 C1520.44103,54.82 1521.51724,54.6541379 1522.55414,54.3534483 C1523.11655,55.7017241 1523.43103,57.1558621 1523.47345,58.6551724 L1519.34483,58.6551724 L1519.34483,54.8493103 Z M1519.34483,54.1596552 L1519.34483,49.9117241 C1520.58,50.9893103 1521.5669,52.2834483 1522.26586,53.7172414 C1521.32034,53.9827586 1520.34172,54.1313793 1519.34483,54.1596552 Z M1522.93414,53.5075862 C1522.27172,52.1196552 1521.35241,50.8551724 1520.21414,49.7713793 C1522.23345,50.0355172 1524.05034,50.9486207 1525.44966,52.2948276 C1524.65517,52.7989655 1523.81241,53.2044828 1522.93414,53.5075862 Z M1515.06586,53.5075862 C1514.18759,53.2044828 1513.34483,52.7989655 1512.55069,52.2948276 C1513.94966,50.9486207 1515.7669,50.0355172 1517.78621,49.7713793 C1516.64759,50.8551724 1515.72828,52.1196552 1515.06586,53.5075862 Z M1514.5269,59.3448276 L1518.65517,59.3448276 L1518.65517,62.8062069 C1517.51483,62.8365517 1516.39759,63.0144828 1515.32379,63.3375862 C1514.83862,62.0772414 1514.56586,60.7306897 1514.5269,59.3448276 Z M1518.65517,63.4958621 L1518.65517,68.0882759 C1517.3331,66.9348276 1516.29655,65.5334483 1515.59172,63.9789655 C1516.58034,63.6875862 1517.60724,63.5255172 1518.65517,63.4958621 Z M1519.34483,68.0882759 L1519.34483,63.4958621 C1520.39276,63.5251724 1521.41966,63.6875862 1522.40828,63.9786207 C1521.70345,65.5334483 1520.6669,66.9348276 1519.34483,68.0882759 Z M1519.34483,62.8062069 L1519.34483,59.3448276 L1523.4731,59.3448276 C1523.43414,60.7306897 1523.16138,62.0772414 1522.67586,63.337931 C1521.60241,63.0144828 1520.48517,62.8365517 1519.34483,62.8062069 Z M1524.16276,59.3448276 L1528.30172,59.3448276 C1528.2231,61.4862069 1527.41931,63.4451724 1526.1269,64.982069 C1525.24828,64.3882759 1524.31069,63.9124138 1523.33,63.5575862 C1523.83862,62.2268966 1524.12379,60.8065517 1524.16276,59.3448276 Z M1512.34172,65.4986207 C1513.15759,64.9565517 1514.02621,64.5206897 1514.93379,64.1948276 C1515.60448,65.6982759 1516.56724,67.0682759 1517.78586,68.2286207 C1515.66483,67.9510345 1513.76655,66.957931 1512.34172,65.4986207 Z M1520.21414,68.2286207 C1521.43276,67.0686207 1522.39552,65.6986207 1523.06621,64.1948276 C1523.97379,64.5206897 1524.84207,64.9565517 1525.65828,65.4986207 C1524.23345,66.957931 1522.33517,67.9510345 1520.21414,68.2286207 Z" id="globe"></path>
        </g>
    </g>
</svg>