<?xml version="1.0" encoding="UTF-8"?>
<svg width="32px" height="32px" viewBox="0 0 32 32" version="1.1" xmlns="http://www.w3.org/2000/svg" xmlns:xlink="http://www.w3.org/1999/xlink">
    <!-- Generator: Sketch 49.3 (51167) - http://www.bohemiancoding.com/sketch -->
    <title>hints-loader</title>
    <desc>Created with Sketch.</desc>
    <defs></defs>
    <g id="Property-Search-With-Tags" stroke="none" stroke-width="1" fill="none" fill-rule="evenodd">
        <g id="desktop_property_search_hints_loading_1920p-copy" transform="translate(-643.000000, -293.000000)" fill="#2A2A2A" fill-rule="nonzero">
            <g id="search_hints" transform="translate(375.000000, 111.000000)">
                <path d="M284,214 C283.447715,214 283,213.552285 283,213 C283,212.447715 283.447715,212 284,212 C291.731986,212 298,205.731986 298,198 C298,190.268014 291.731986,184 284,184 C276.268014,184 270,190.268014 270,198 C270,199.508858 270.238379,200.984141 270.700735,202.386719 C270.873642,202.91124 270.588603,203.476616 270.064082,203.649523 C269.539562,203.82243 268.974185,203.537391 268.801279,203.01287 C268.272526,201.408877 268,199.722261 268,198 C268,189.163444 275.163444,182 284,182 C292.836556,182 300,189.163444 300,198 C300,206.836556 292.836556,214 284,214 Z" id="hints-loader"></path>
            </g>
        </g>
    </g>
</svg>