<!-- Generator: Adobe Illustrator 21.1.0, SVG Export Plug-In  -->
<svg version="1.1"
	 xmlns="http://www.w3.org/2000/svg" xmlns:xlink="http://www.w3.org/1999/xlink" xmlns:a="http://ns.adobe.com/AdobeSVGViewerExtensions/3.0/"
	 x="0px" y="0px" width="376.4px" height="150.8px" viewBox="0 0 376.4 150.8" style="enable-background:new 0 0 376.4 150.8;"
	 xml:space="preserve">
<style type="text/css">
	.st0{fill:#414042;}
</style>
<defs>
</defs>
<polygon class="st0" points="37.7,34.4 9.3,0 9.3,0 9.3,0 0,0 0,150.6 15.8,150.6 15.8,32.7 15.8,32.7 21.8,40 21.8,150.6
	37.7,150.6 37.7,59.2 37.7,59.2 112.9,150.5 112.9,150.6 112.9,150.6 112.9,150.6 133.4,150.6 112.9,125.7 "/>
<path class="st0" d="M360.6,0.3v60.4h-6V0.3h-15.8v60.4h-75.3V0.3h-9.4L226,34.4l-0.1,0.1l-23.6,28.6L192,75.6l-3.9,4.7l-3.9-4.7
	l3.9-4.8l10.2-12.4L225.9,25l0.1-0.1l20.3-24.6l0.2-0.3H226l0,0l-37.6,45.6l-0.3,0.3l-5.1-6.2L150.6,0.4V0h-20.9l20.5,24.9l0.3,0.4
	l22.2,26.9l5.1,6.2l-3.9,4.7l-1.4-1.7l-22-26.7l-0.3-0.4L121.9,0h-9v91.3L37.7,0l0,0H17.1l20.5,24.9l75.3,91.3l28.3,34.3h9.3v-91
	l13.1,15.9L173.9,88l3.9,4.7l10.3,12.4l10.2-12.4l3.9-4.7l10.2-12.4l0.1-0.2l13.2-16.1v17.1h150.6V0.3H360.6z M134.8,117.8l-6-7.3
	V33.1l5.7,6.9l0.3,0.4L134.8,117.8L134.8,117.8z M241.7,60.7V40.2l6-7.3v27.8C247.7,60.7,241.7,60.7,241.7,60.7z"/>
<polygon class="st0" points="376.4,82.5 376.4,150.8 360.6,150.8 360.6,98.3 354.6,98.3 354.6,150.8 338.8,150.8 338.8,98.3
	263.5,98.3 263.5,150.8 247.7,150.8 247.7,98.3 241.7,98.3 241.7,150.8 225.9,150.8 225.9,82.5 "/>
</svg>
