<?xml version="1.0" encoding="UTF-8"?>
<svg width="25px" height="26px" viewBox="0 0 25 26" version="1.1" xmlns="http://www.w3.org/2000/svg" xmlns:xlink="http://www.w3.org/1999/xlink">
    <!-- Generator: Sketch 48.2 (47327) - http://www.bohemiancoding.com/sketch -->
    <title>social-fb</title>
    <desc>Created with Sketch.</desc>
    <defs></defs>
    <g id="Footer" stroke="none" stroke-width="1" fill="none" fill-rule="evenodd" transform="translate(-1521.000000, -433.000000)" opacity="0.85">
        <g id="Social-Icons" transform="translate(1404.000000, 433.000000)" fill="#A7A7A7" fill-rule="nonzero">
            <g id="facebook-3-copy" transform="translate(117.000000, 0.000000)">
                <path d="M21.0784573,0 L4.14023852,0 C1.93904395,0 0,1.60830723 0,3.82194891 L0,20.8559484 C0,23.0695901 1.93904395,25.0499992 4.14023852,25.0499992 L14.6278351,25.0499992 C14.6081859,21.7667469 14.6324905,18.1105414 14.6166502,14.9335084 C13.9477308,14.9266987 13.2782069,14.8919205 12.6092875,14.8815844 C12.6117663,13.7587729 12.6103153,12.6126746 12.6107385,11.4900455 C13.2792347,11.4817158 13.948154,11.480135 14.6166502,11.4737509 C14.6370854,10.3819479 14.596215,9.28339596 14.6380527,8.19256577 C14.7047391,7.328888 15.0321855,6.45590769 15.6743215,5.85920698 C16.451765,5.11506392 17.5571385,4.86225349 18.5997555,4.83094099 C19.7021061,4.82103044 20.8045777,4.82632012 21.9074724,4.82680653 C21.9118255,5.99661717 21.9118255,7.16654942 21.9069887,8.33636006 C21.1942365,8.33514404 20.4810611,8.33775848 19.7683089,8.33484004 C19.3168004,8.30644598 18.8526559,8.65088347 18.770492,9.10147946 C18.7597908,9.88429193 18.7666226,10.66753 18.7670459,11.4500993 C19.8120812,11.4545378 20.8575398,11.4488833 21.9025752,11.4527745 C21.8261549,12.5854358 21.6860712,13.7126249 21.5225898,14.835558 C20.5992586,14.8438878 19.6753228,14.9276107 18.7524752,14.9329612 C18.744676,18.1089606 18.7548936,21.7666861 18.7468525,25.0499384 L21.0783969,25.0499384 C23.2795915,25.0499384 24.9090849,23.0695293 24.9090849,20.8558876 L24.9090849,3.82194891 C24.9091453,1.60830723 23.2796519,0 21.0784573,0 Z" id="social-fb"></path>
            </g>
        </g>
    </g>
</svg>