<?xml version="1.0" encoding="UTF-8"?>
<svg width="33px" height="24px" viewBox="0 0 33 24" version="1.1" xmlns="http://www.w3.org/2000/svg" xmlns:xlink="http://www.w3.org/1999/xlink">
    <!-- Generator: Sketch 48.2 (47327) - http://www.bohemiancoding.com/sketch -->
    <title>social-youtube</title>
    <desc>Created with Sketch.</desc>
    <defs></defs>
    <g id="Footer" stroke="none" stroke-width="1" fill="none" fill-rule="evenodd" transform="translate(-1458.000000, -433.000000)" opacity="0.85">
        <g id="Social-Icons" transform="translate(1404.000000, 433.000000)" fill="#A7A7A7">
            <path d="M85.0697394,1.60642806 C84.4032547,0.980800504 83.5591737,0.570494192 82.6360157,0.465017388 C80.6295381,0.232785999 78.6048667,0.11589207 76.5734833,0.0572840136 C74.5551354,-0.000921539361 72.5281382,-0.000921539361 70.5056412,0.000284383059 C68.4834316,-0.000921530285 66.456566,-0.000921530285 64.4379526,0.0572840136 C62.4063367,0.115891389 60.3810662,0.232784864 58.3734455,0.465017388 C57.4511783,0.570548192 56.6074594,0.981041008 55.9415868,1.60693857 C55.279949,2.22881563 54.7938318,3.06400369 54.5811731,4.02406995 C54.2940845,5.31099451 54.1488563,6.65370688 54.0754907,8.00474839 C54.0018398,9.36150981 54,10.7010911 54,12.0015587 C54,13.300302 54.0000259,14.6381385 54.0719403,15.9957145 C54.1435179,17.3461502 54.2869839,18.6888126 54.5742262,19.9759618 C54.7881555,20.9364319 55.2745051,21.7718628 55.9360925,22.3937058 C56.6015679,23.0192539 57.4444553,23.4295058 58.3664591,23.5350371 C60.3743366,23.7672435 62.3996048,23.8841352 64.4312295,23.942716 C66.44981,24.0009215 68.4766843,24.0009215 70.4991814,23.9997156 C72.5225824,24.0009215 74.5494195,24.0009215 76.5677257,23.942716 C78.5990563,23.8841354 80.6237344,23.7672421 82.631377,23.5350371 C83.5532032,23.4295063 84.3959106,23.0193878 85.0616779,22.394028 C85.7236009,21.7722326 86.2106243,20.9367201 86.4259533,19.9759663 C86.7119272,18.6887741 86.8554177,17.3461025 86.9272562,15.995719 C86.9981341,14.6640403 86.9987301,13.3131032 86.9986265,12.0015633 L87,12.0015633 L87,11.9357204 L86.9986265,11.9357204 C86.9986783,9.32988424 86.9986783,6.56994417 86.4329255,4.02409786 C86.2189961,3.06360051 85.7321024,2.22824908 85.0697383,1.60644463 L85.0697394,1.60642806 Z M65.9827623,17.1829298 L65.9827623,6.13910813 L65.9827623,5.54172389 L66.4956481,5.81862772 C68.0491817,6.6573825 69.5982349,7.49323989 71.1486836,8.32985056 C73.0138978,9.3362796 74.8813192,10.3439429 76.7613724,11.3592457 L77.3574711,11.6811714 L76.7599988,12.0016223 L71.6271477,14.7540976 C69.9186679,15.6700292 68.2101398,16.5857202 66.4942746,17.504826 L65.9827623,17.7788097 L65.9827623,17.1829275 L65.9827623,17.1829298 Z" id="social-youtube"></path>
        </g>
    </g>
</svg>