<?xml version="1.0" encoding="UTF-8"?><!DOCTYPE svg PUBLIC "-//W3C//DTD SVG 1.1//EN" "http://www.w3.org/Graphics/SVG/1.1/DTD/svg11.dtd"><svg xmlns="http://www.w3.org/2000/svg"><symbol id="ico-arrow-left" viewBox="0 0 12 21">
    <title>
        arrow-left
    </title>
    <path d="M.605 11.778l8.229 8.6a1.3 1.3 0 0 0 1.895 0 1.446 1.446 0 0 0 0-1.981l-7.281-7.61 7.28-7.608a1.446 1.446 0 0 0 0-1.98 1.3 1.3 0 0 0-1.895 0L.603 9.797a1.43 1.43 0 0 0-.39.99c0 .358.13.717.392.99z" fill-rule="evenodd"/>
</symbol><symbol id="ico-arrow-right" viewBox="0 0 12 21">
    <title>
        arrow-right
    </title>
    <path d="M10.729 11.778l-8.23 8.6a1.3 1.3 0 0 1-1.895 0 1.446 1.446 0 0 1 0-1.981l7.282-7.61L.604 3.18a1.446 1.446 0 0 1 0-1.98 1.3 1.3 0 0 1 1.897 0l8.228 8.599c.262.273.392.631.392.99 0 .358-.131.717-.392.99z" fill-rule="evenodd"/>
</symbol><symbol id="ico-back" viewBox="0 0 26 18">
    <title>
        back
    </title>
    <g fill-rule="evenodd">
        <path d="M7.948.274L.374 7.848c-.056.056.056.26.251.456l.708.707c.195.195.399.307.455.25l7.574-7.573c.056-.056-.056-.26-.251-.455L8.404.525c-.196-.195-.4-.307-.456-.25z"/>
        <path d="M1.788 8.274l7.574 7.574c.056.056-.056.26-.251.456l-.707.707c-.196.195-.4.307-.456.25L.374 9.689c-.056-.056.056-.26.251-.455l.708-.708c.195-.195.399-.307.455-.25z"/>
        <path d="M.697 7.768h24.342c.182 0 .33.224.33.5v1c0 .276-.148.5-.33.5H.697c-.182 0-.329-.224-.329-.5v-1c0-.276.147-.5.329-.5z"/>
    </g>
</symbol><symbol id="ico-close" viewBox="0 0 18 18">
    <title>
        close
    </title>
    <g fill-rule="evenodd">
        <path d="M1.626.212L17.324 15.91c.117.117.054.37-.141.566l-.707.707c-.196.195-.449.258-.566.141L.212 1.626c-.117-.117-.054-.37.141-.565l.708-.708c.195-.195.448-.258.565-.14z"/>
        <path d="M15.91.212L.212 15.91c-.117.117-.054.37.141.566l.708.707c.195.195.448.258.565.141L17.324 1.626c.117-.117.054-.37-.141-.565l-.707-.708c-.196-.195-.449-.258-.566-.14z"/>
    </g>
</symbol><symbol id="ico-drop-arrow" viewBox="0 0 10 6">
    <title>
        drop-arrow
    </title>
    <path d="M4.497.218L.197 4.77a.772.772 0 0 0 0 1.049c.273.289.717.289.99 0L4.992 1.79l3.805 4.028c.273.289.717.289.99 0a.773.773 0 0 0 0-1.05L5.487.219A.68.68 0 0 0 4.992 0a.68.68 0 0 0-.495.217z" fill-rule="evenodd"/>
</symbol><symbol id="ico-globe" viewBox="0 0 20 20">
    <title>
        globe
    </title>
    <path d="M17.479 16.628A9.957 9.957 0 0 0 20 10a9.96 9.96 0 0 0-2.714-6.84l-.005-.004A9.972 9.972 0 0 0 10.347.009L10.15.003C10.101.002 10.051 0 10 0l-.151.003-.195.006A9.972 9.972 0 0 0 2.72 3.156l-.005.004v.001A9.958 9.958 0 0 0 0 10c0 2.541.954 4.862 2.521 6.628.002.003.002.007.005.01.006.009.015.013.022.02a9.977 9.977 0 0 0 7.106 3.333l.194.006c.051.001.101.003.152.003l.151-.003.195-.006a9.977 9.977 0 0 0 7.112-3.34c.004-.005.012-.007.016-.013.003-.003.003-.007.005-.01zM.699 10.345h4.138c.04 1.462.325 2.882.833 4.213-.98.354-1.918.83-2.797 1.424a9.267 9.267 0 0 1-2.175-5.637zM3.06 3.8A12.684 12.684 0 0 0 5.786 5.14a12.733 12.733 0 0 0-.949 4.515H.698a9.27 9.27 0 0 1 2.363-5.854zm16.24 5.854h-4.138a12.733 12.733 0 0 0-.949-4.515c.953-.334 1.867-.781 2.725-1.339a9.27 9.27 0 0 1 2.363 5.854zM9.656 5.16a12.055 12.055 0 0 1-2.92-.443A12.065 12.065 0 0 1 9.654.912V5.16zm0 .69v3.805H5.527c.042-1.5.357-2.953.92-4.302 1.036.3 2.112.467 3.208.496zm.69 0a12.73 12.73 0 0 0 3.21-.497c.562 1.349.876 2.803.918 4.302h-4.128V5.85zm0-.69V.912a12.065 12.065 0 0 1 2.92 3.805c-.945.266-1.923.414-2.92.443zm3.59-.652A12.735 12.735 0 0 0 11.214.77a9.284 9.284 0 0 1 5.235 2.524c-.795.504-1.638.91-2.516 1.213zm-7.87 0a11.983 11.983 0 0 1-2.514-1.213A9.282 9.282 0 0 1 8.786.77a12.73 12.73 0 0 0-2.72 3.737zm-.538 5.837h4.128v3.461c-1.14.03-2.257.208-3.331.532a12.043 12.043 0 0 1-.797-3.993zm4.128 4.15v4.593a12.059 12.059 0 0 1-3.063-4.109 12.023 12.023 0 0 1 3.063-.483zm.69 4.593v-4.592c1.048.03 2.075.192 3.063.483a12.057 12.057 0 0 1-3.063 4.11zm0-5.282v-3.461h4.128a12.038 12.038 0 0 1-.797 3.993 12.7 12.7 0 0 0-3.331-.532zm4.818-3.461h4.139a9.265 9.265 0 0 1-2.175 5.637 12.715 12.715 0 0 0-2.797-1.424c.509-1.331.794-2.751.833-4.213zM3.342 16.499a12.018 12.018 0 0 1 2.592-1.304 12.724 12.724 0 0 0 2.852 4.034 9.29 9.29 0 0 1-5.444-2.73zm7.872 2.73a12.716 12.716 0 0 0 2.852-4.034c.908.326 1.776.762 2.592 1.304a9.29 9.29 0 0 1-5.444 2.73z" fill-rule="nonzero"/>
</symbol><symbol id="ico-logo" viewBox="0 0 73 29">
    <style>
        .st0{fill:#414042}
    </style>
    <path class="st0" d="M7.3 6.6L1.8 0H0v29h3V6.3l1.2 1.4V29h3.1V11.4L21.8 29h3.9l-3.9-4.8z"/>
    <path class="st0" d="M69.5.1v11.6h-1.2V.1h-3v11.6H50.8V.1H49l-5.4 6.6-4.6 5.5-2 2.4-.8.9-.8-.9.8-.9 2-2.4 5.3-6.4L47.4.2V.1h-4l-7.2 8.8-.1.1-1-1.2L29 .1V0h-4l4 4.8v.1l4.3 5.2 1 1.2-.8.9-.3-.3L29 6.7l-.1-.1L23.5 0h-1.7v17.6L7.3 0h-4l4 4.8 14.5 17.6 5.5 6.6H29V11.5l2.5 3.1 2 2.4.8.9 2 2.4 2-2.4.8-.9 2-2.4 2.5-3.1v3.3h29V.1h-3.1zM26 22.7l-1.2-1.4V6.4l1.1 1.3.1.1v14.9zm20.5-11v-4l1.2-1.4v5.4h-1.2z"/>
    <path class="st0" d="M72.5 15.9v13.2h-3V18.9h-1.2v10.2h-3V18.9H50.8v10.2h-3.1V18.9h-1.2v10.2h-3V15.9z"/>
</symbol><symbol id="ico-search" viewBox="0 0 23 23">
    <title>
        search
    </title>
    <g fill-rule="evenodd">
        <path d="M15.504 14.09l6.644 6.644c.05.05-.068.248-.264.443l-.707.707c-.195.196-.394.314-.443.264l-6.644-6.644c-.05-.05.068-.248.263-.443l.708-.708c.195-.195.393-.313.443-.263z"/>
        <path d="M8 16A8 8 0 1 1 8 0a8 8 0 0 1 0 16zm0-2A6 6 0 1 0 8 2a6 6 0 0 0 0 12z" fill-rule="nonzero"/>
    </g>
</symbol><symbol id="ico-social-fb" viewBox="0 0 25 26">
    <title>
        social-fb
    </title>
    <path d="M21.078 0H4.14C1.94 0 0 1.608 0 3.822v17.034c0 2.214 1.939 4.194 4.14 4.194h10.488c-.02-3.283.004-6.94-.011-10.116-.67-.007-1.339-.042-2.008-.052.003-1.123.001-2.27.002-3.392.668-.008 1.337-.01 2.006-.016.02-1.092-.02-2.19.021-3.281.067-.864.394-1.737 1.036-2.334.778-.744 1.883-.997 2.926-1.028 1.102-.01 2.205-.005 3.307-.004.005 1.17.005 2.34 0 3.51-.713-.002-1.426 0-2.139-.002-.451-.029-.915.316-.998.766-.01.783-.003 1.567-.003 2.35 1.045.004 2.09-.002 3.136.002a44.108 44.108 0 0 1-.38 3.383c-.924.008-1.848.092-2.77.097-.008 3.176.002 6.834-.006 10.117h2.331c2.202 0 3.831-1.98 3.831-4.194V3.822C24.91 1.608 23.28 0 21.08 0z" fill-rule="nonzero"/>
</symbol><symbol id="ico-social-youtube" viewBox="0 0 33 24">
    <title>
        social-youtube
    </title>
    <path d="M31.07 1.606A4.262 4.262 0 0 0 28.636.465C26.63.233 24.605.115 22.573.057 20.555 0 18.528 0 16.506 0c-2.023 0-4.05 0-6.068.057-2.032.059-4.057.176-6.065.408a4.257 4.257 0 0 0-2.431 1.142 4.706 4.706 0 0 0-1.36 2.417C.293 5.311.148 6.654.074 8.004.002 9.363 0 10.702 0 12.003c0 1.298 0 2.636.072 3.994.072 1.35.215 2.693.502 3.98.214.96.7 1.796 1.362 2.418a4.254 4.254 0 0 0 2.43 1.141c2.008.232 4.034.35 6.065.408C12.45 24 14.477 24 16.5 24c2.024 0 4.05 0 6.069-.057 2.031-.059 4.056-.176 6.063-.408a4.256 4.256 0 0 0 2.43-1.141 4.728 4.728 0 0 0 1.365-2.418c.286-1.287.43-2.63.501-3.98.071-1.332.072-2.683.072-3.994H33v-.066h-.001c0-2.606 0-5.366-.566-7.912a4.713 4.713 0 0 0-1.363-2.418zM11.983 17.183V5.542l.513.277 4.653 2.51 5.612 3.03.596.322-.597.32-5.133 2.753c-1.708.916-3.417 1.832-5.133 2.75l-.511.275v-.596z" fill-rule="evenodd"/>
</symbol></svg>